<svg xmlns="http://www.w3.org/2000/svg" version="1.1" xmlns:xlink="http://www.w3.org/1999/xlink" xmlns:svgjs="http://svgjs.dev/svgjs" width="200" height="70" viewBox="0 0 1000 1000"><rect width="1000" height="1000" fill="#ffffff"></rect><g transform="matrix(0.7,0,0,0.7,149.5757575757575,430.5845269663656)"><svg viewBox="0 0 396 79" data-background-color="#ffffff" preserveAspectRatio="xMidYMid meet" height="199" width="1000" xmlns="http://www.w3.org/2000/svg" xmlns:xlink="http://www.w3.org/1999/xlink"><g id="tight-bounds" transform="matrix(1,0,0,1,0.24000000000003752,-0.13300524294962202)"><svg viewBox="0 0 395.5199999999999 79.26601028648652" height="79.26601028648652" width="395.5199999999999"><g><svg viewBox="0 0 395.5199999999999 79.26601028648652" height="79.26601028648652" width="395.5199999999999"><g><svg viewBox="0 0 397.4975999999999 79.66234033791895" height="79.26601028648652" width="395.5199999999999"><g><rect width="397.4975999999999" height="2.439952269369765" x="0" y="43.778920252462314" fill="#3886ce" opacity="1" stroke-width="0" stroke="transparent" fill-opacity="1" class="rect-o-0" data-fill-palette-color="secondary" rx="1%" id="o-0" data-palette-color="#3886ce"></rect></g><g transform="matrix(1,0,0,1,0.9887999999999693,52.606182127512085)"><svg viewBox="0 0 395.52 27.05615821040687" height="27.05615821040687" width="395.52"><g id="textblocktransform"><svg viewBox="0 0 395.52 27.05615821040687" height="27.05615821040687" width="395.52" id="textblock"><g><svg viewBox="0 0 395.52 27.05615821040687" height="27.05615821040687" width="395.52"><g transform="matrix(1,0,0,1,0,0)"><svg width="395.52" viewBox="3.9100000858306885 -30.65999984741211 451.7799987792969 30.899999618530273" height="27.05615821040687" data-palette-color="#202046"><path d="M5.66 0.07Q4.74 0.07 4.32-0.16 3.91-0.39 3.91-0.88L3.91-0.88 3.91-29.52Q3.91-30.49 5.66-30.49L5.66-30.49 7.2-30.49Q8.64-30.49 9.03-29.69L9.03-29.69 17.24-15.45 18.36-12.72 19.48-15.21 27.71-29.69Q28.13-30.49 29.52-30.49L29.52-30.49 30.96-30.49Q32.69-30.49 32.69-29.52L32.69-29.52 32.69-0.88Q32.69 0.07 30.96 0.07L30.96 0.07 30.66 0.07Q29.74 0.07 29.32-0.16 28.91-0.39 28.91-0.88L28.91-0.88 28.91-24.24 28.83-24.05 20.19-9.03Q20.02-8.74 19.8-8.61 19.58-8.47 19.24-8.47L19.24-8.47 17.5-8.47Q16.85-8.47 16.53-9.03L16.53-9.03 7.69-24.49 7.69-0.88Q7.69 0.07 5.96 0.07L5.96 0.07 5.66 0.07ZM38.96 0.07Q37.99 0.07 37.55-0.11 37.11-0.29 37.11-0.66L37.11-0.66Q37.11-0.83 37.23-1.25L37.23-1.25 47.51-29.79Q47.75-30.49 49.24-30.49L49.24-30.49 50.51-30.49Q52-30.49 52.24-29.79L52.24-29.79 62.52-1.22Q62.64-0.95 62.64-0.66L62.64-0.66Q62.64 0.07 60.81 0.07L60.81 0.07 60.45 0.07Q58.93 0.07 58.69-0.61L58.69-0.61 56.15-7.74 43.41-7.74 40.92-0.61Q40.7 0.07 39.18 0.07L39.18 0.07 38.96 0.07ZM44.6-11.04L54.98-11.04 50.44-23.95Q50.24-24.49 50.12-25.17 50-25.85 49.9-26.49L49.9-26.49 49.8-26.49Q49.51-24.85 49.14-23.95L49.14-23.95 44.6-11.04ZM69.14 0.07Q67.38 0.07 67.38-0.88L67.38-0.88 67.38-29.08Q67.38-29.76 67.7-30.07 68.01-30.37 68.7-30.37L68.7-30.37 76-30.37Q81.2-30.37 83.82-28.54 86.45-26.71 86.45-22.71L86.45-22.71Q86.45-20 85.14-18.15 83.83-16.31 81.46-15.38L81.46-15.38 81.46-15.21Q82.73-14.77 83.55-13.51 84.37-12.26 85.37-9.79L85.37-9.79 88.76-1.22Q88.89-0.78 88.89-0.61L88.89-0.61Q88.89 0.07 87.06 0.07L87.06 0.07 86.62 0.07Q85.96 0.07 85.48-0.11 85-0.29 84.88-0.61L84.88-0.61 81.59-9.13Q80.95-10.79 80.1-11.72 79.24-12.65 78.07-13.01 76.9-13.38 75.12-13.38L75.12-13.38 71.21-13.38 71.21-0.88Q71.21 0.07 69.48 0.07L69.48 0.07 69.14 0.07ZM71.21-16.67L76.92-16.67Q78.46-16.67 79.74-17.41 81.03-18.14 81.77-19.37 82.51-20.61 82.51-22L82.51-22Q82.51-24.56 80.95-25.82 79.39-27.08 76.63-27.08L76.63-27.08 71.21-27.08 71.21-16.67ZM95.62 0.07Q93.86 0.07 93.86-0.88L93.86-0.88 93.86-29.52Q93.86-30.49 95.62-30.49L95.62-30.49 95.96-30.49Q97.7-30.49 97.7-29.52L97.7-29.52 97.7-16.24 97.87-16.24 108.54-29.86Q108.83-30.18 109.48-30.33 110.12-30.49 110.91-30.49L110.91-30.49 111.32-30.49Q112.05-30.49 112.44-30.32 112.83-30.15 112.83-29.91L112.83-29.91Q112.83-29.52 112.42-29.03L112.42-29.03 101.58-15.5 114.71-1.22Q115.1-0.81 115.1-0.54L115.1-0.54Q115.1-0.17 114.68-0.05 114.25 0.07 113.2 0.07L113.2 0.07 112.66 0.07Q111.74 0.07 111.19-0.02 110.64-0.12 110.3-0.49L110.3-0.49 97.87-14.45 97.7-14.45 97.7-0.88Q97.7 0.07 95.96 0.07L95.96 0.07 95.62 0.07ZM135.68 0.24Q133.29 0.24 131.23-0.28 129.16-0.81 127.93-1.55 126.7-2.29 126.7-2.91L126.7-2.91Q126.7-3.25 126.98-3.81 127.26-4.37 127.62-4.81 127.99-5.25 128.21-5.25L128.21-5.25Q128.41-5.25 129.06-4.86L129.06-4.86Q130.58-4.08 132.07-3.56 133.56-3.05 135.68-3.05L135.68-3.05Q137.34-3.05 138.63-3.69 139.93-4.32 140.65-5.48 141.37-6.64 141.37-8.15L141.37-8.15Q141.37-9.77 140.5-10.83 139.64-11.89 138.4-12.51 137.17-13.13 134.83-14.06L134.83-14.06Q132.29-15.04 130.81-15.88 129.33-16.72 128.3-18.33 127.26-19.95 127.26-22.61L127.26-22.61Q127.26-24.93 128.45-26.77 129.65-28.61 131.85-29.64 134.05-30.66 136.9-30.66L136.9-30.66Q138.2-30.66 139.86-30.31 141.52-29.96 142.7-29.35 143.88-28.74 143.88-28L143.88-28Q143.88-27.69 143.63-27.14 143.37-26.59 143.03-26.15 142.69-25.71 142.49-25.71L142.49-25.71Q142.27-25.71 141.61-26.07L141.61-26.07Q140.51-26.66 139.44-27.01 138.37-27.37 136.83-27.37L136.83-27.37Q134.31-27.37 132.76-26.07 131.21-24.78 131.21-22.46L131.21-22.46Q131.21-21.07 131.9-20.17 132.58-19.26 133.63-18.73 134.68-18.19 136.56-17.48L136.56-17.48Q136.68-17.46 137.12-17.29L137.12-17.29Q139.71-16.28 141.36-15.34 143.01-14.4 144.16-12.65 145.32-10.89 145.32-8.15L145.32-8.15Q145.32-5.59 144.14-3.69 142.96-1.78 140.77-0.77 138.59 0.24 135.68 0.24L135.68 0.24ZM149.18 0.07Q148.2 0.07 147.76-0.11 147.32-0.29 147.32-0.66L147.32-0.66Q147.32-0.83 147.45-1.25L147.45-1.25 157.72-29.79Q157.97-30.49 159.46-30.49L159.46-30.49 160.73-30.49Q162.22-30.49 162.46-29.79L162.46-29.79 172.74-1.22Q172.86-0.95 172.86-0.66L172.86-0.66Q172.86 0.07 171.03 0.07L171.03 0.07 170.66 0.07Q169.15 0.07 168.91-0.61L168.91-0.61 166.37-7.74 153.62-7.74 151.13-0.61Q150.91 0.07 149.4 0.07L149.4 0.07 149.18 0.07ZM154.82-11.04L165.19-11.04 160.65-23.95Q160.46-24.49 160.34-25.17 160.21-25.85 160.12-26.49L160.12-26.49 160.02-26.49Q159.73-24.85 159.36-23.95L159.36-23.95 154.82-11.04ZM184.82 0.07Q183.31 0.07 183.09-0.61L183.09-0.61 173.15-29.17Q173-29.47 173-29.74L173-29.74Q173-30.08 173.48-30.29 173.96-30.49 174.88-30.49L174.88-30.49 175.28-30.49Q176.76-30.49 177.01-29.79L177.01-29.79 185.04-6.62 185.48-4.35 185.6-4.35 186.09-6.67 194.1-29.79Q194.37-30.49 195.86-30.49L195.86-30.49 196.1-30.49Q197.98-30.49 197.98-29.74L197.98-29.74Q197.98-29.49 197.83-29.13L197.83-29.13 187.9-0.61Q187.68 0.07 186.16 0.07L186.16 0.07 184.82 0.07ZM204.84 0.07Q203.08 0.07 203.08-0.88L203.08-0.88 203.08-29.52Q203.08-30.49 204.84-30.49L204.84-30.49 205.18-30.49Q206.91-30.49 206.91-29.52L206.91-29.52 206.91-0.88Q206.91 0.07 205.18 0.07L205.18 0.07 204.84 0.07ZM216.65 0Q215.97 0 215.65-0.32 215.33-0.63 215.33-1.29L215.33-1.29 215.33-29.52Q215.33-30.49 217.09-30.49L217.09-30.49 217.43-30.49Q219.17-30.49 219.17-29.52L219.17-29.52 219.17-3.3 231.11-3.3Q231.57-3.3 231.76-2.99 231.96-2.69 231.96-2L231.96-2 231.96-1.29Q231.96-0.63 231.76-0.32 231.57 0 231.11 0L231.11 0 216.65 0ZM237.65 0Q236.96 0 236.64-0.32 236.33-0.63 236.33-1.29L236.33-1.29 236.33-29.52Q236.33-30.49 238.09-30.49L238.09-30.49 238.43-30.49Q240.16-30.49 240.16-29.52L240.16-29.52 240.16-3.3 252.1-3.3Q252.56-3.3 252.76-2.99 252.95-2.69 252.95-2L252.95-2 252.95-1.29Q252.95-0.63 252.76-0.32 252.56 0 252.1 0L252.1 0 237.65 0ZM258.64 0Q257.96 0 257.64-0.32 257.32-0.63 257.32-1.29L257.32-1.29 257.32-29.08Q257.32-29.76 257.64-30.07 257.96-30.37 258.64-30.37L258.64-30.37 273.78-30.37Q274.24-30.37 274.45-30.08 274.66-29.79 274.66-29.08L274.66-29.08 274.66-28.37Q274.66-27.71 274.45-27.39 274.24-27.08 273.78-27.08L273.78-27.08 261.15-27.08 261.15-17.19 272.48-17.19Q272.95-17.19 273.15-16.87 273.36-16.55 273.36-15.87L273.36-15.87 273.36-15.21Q273.36-14.53 273.15-14.22 272.95-13.92 272.48-13.92L272.48-13.92 261.15-13.92 261.15-3.3 273.83-3.3Q274.29-3.3 274.5-2.99 274.7-2.69 274.7-2L274.7-2 274.7-1.29Q274.7-0.63 274.5-0.32 274.29 0 273.83 0L273.83 0 258.64 0ZM292.77 0Q292.08 0 291.76-0.32 291.45-0.63 291.45-1.29L291.45-1.29 291.45-29.08Q291.45-29.76 291.76-30.07 292.08-30.37 292.77-30.37L292.77-30.37 301.53-30.37Q307.63-30.37 311.3-26.76 314.96-23.14 314.96-15.21L314.96-15.21Q314.96-7.23 311.3-3.61 307.63 0 301.53 0L301.53 0 292.77 0ZM295.28-3.3L301.24-3.3Q305.63-3.3 308.32-6.16 311-9.03 311-15.21L311-15.21Q311-19.36 309.73-22.01 308.46-24.66 306.27-25.87 304.07-27.08 301.24-27.08L301.24-27.08 295.28-27.08 295.28-3.3ZM322.94 0Q322.26 0 321.94-0.32 321.62-0.63 321.62-1.29L321.62-1.29 321.62-29.08Q321.62-29.76 321.94-30.07 322.26-30.37 322.94-30.37L322.94-30.37 338.08-30.37Q338.54-30.37 338.75-30.08 338.95-29.79 338.95-29.08L338.95-29.08 338.95-28.37Q338.95-27.71 338.75-27.39 338.54-27.08 338.08-27.08L338.08-27.08 325.45-27.08 325.45-17.19 336.78-17.19Q337.25-17.19 337.45-16.87 337.66-16.55 337.66-15.87L337.66-15.87 337.66-15.21Q337.66-14.53 337.45-14.22 337.25-13.92 336.78-13.92L336.78-13.92 325.45-13.92 325.45-3.3 338.12-3.3Q338.59-3.3 338.8-2.99 339-2.69 339-2L339-2 339-1.29Q339-0.63 338.8-0.32 338.59 0 338.12 0L338.12 0 322.94 0ZM351.72 0.24Q349.33 0.24 347.26-0.28 345.2-0.81 343.97-1.55 342.74-2.29 342.74-2.91L342.74-2.91Q342.74-3.25 343.02-3.81 343.3-4.37 343.66-4.81 344.03-5.25 344.25-5.25L344.25-5.25Q344.44-5.25 345.1-4.86L345.1-4.86Q346.62-4.08 348.11-3.56 349.6-3.05 351.72-3.05L351.72-3.05Q353.38-3.05 354.67-3.69 355.97-4.32 356.69-5.48 357.41-6.64 357.41-8.15L357.41-8.15Q357.41-9.77 356.54-10.83 355.68-11.89 354.44-12.51 353.21-13.13 350.87-14.06L350.87-14.06Q348.33-15.04 346.85-15.88 345.37-16.72 344.34-18.33 343.3-19.95 343.3-22.61L343.3-22.61Q343.3-24.93 344.49-26.77 345.69-28.61 347.89-29.64 350.08-30.66 352.94-30.66L352.94-30.66Q354.23-30.66 355.9-30.31 357.56-29.96 358.74-29.35 359.92-28.74 359.92-28L359.92-28Q359.92-27.69 359.67-27.14 359.41-26.59 359.07-26.15 358.73-25.71 358.53-25.71L358.53-25.71Q358.31-25.71 357.65-26.07L357.65-26.07Q356.55-26.66 355.48-27.01 354.41-27.37 352.87-27.37L352.87-27.37Q350.35-27.37 348.8-26.07 347.25-24.78 347.25-22.46L347.25-22.46Q347.25-21.07 347.94-20.17 348.62-19.26 349.67-18.73 350.72-18.19 352.6-17.48L352.6-17.48Q352.72-17.46 353.16-17.29L353.16-17.29Q355.75-16.28 357.4-15.34 359.04-14.4 360.2-12.65 361.36-10.89 361.36-8.15L361.36-8.15Q361.36-5.59 360.18-3.69 359-1.78 356.81-0.77 354.63 0.24 351.72 0.24L351.72 0.24ZM368.78 0.07Q367.03 0.07 367.03-0.88L367.03-0.88 367.03-29.52Q367.03-30.49 368.78-30.49L368.78-30.49 369.13-30.49Q370.86-30.49 370.86-29.52L370.86-29.52 370.86-0.88Q370.86 0.07 369.13 0.07L369.13 0.07 368.78 0.07ZM390.95 0.24Q384.41 0.24 380.99-3.53 377.57-7.3 377.57-14.94L377.57-14.94Q377.57-30.66 391.61-30.66L391.61-30.66Q393.66-30.66 395.59-30.24 397.52-29.81 398.71-29.17 399.91-28.54 399.91-27.95L399.91-27.95Q399.91-27.59 399.65-26.98 399.4-26.37 399.05-25.9 398.71-25.44 398.44-25.44L398.44-25.44Q398.32-25.44 397.76-25.76L397.76-25.76Q396.49-26.44 395.1-26.9 393.71-27.37 391.71-27.37L391.71-27.37Q386.19-27.37 383.84-24.33 381.5-21.29 381.5-15.33L381.5-15.33Q381.5-9.72 383.69-6.38 385.87-3.05 391.24-3.05L391.24-3.05Q392.88-3.05 394.4-3.21 395.93-3.37 396.83-3.61L396.83-3.61 396.83-12.38 391.75-12.38Q391.29-12.38 391.08-12.68 390.88-12.99 390.88-13.67L390.88-13.67 390.88-14.38Q390.88-15.06 391.08-15.37 391.29-15.67 391.75-15.67L391.75-15.67 399.35-15.67Q400.03-15.67 400.35-15.37 400.67-15.06 400.67-14.38L400.67-14.38 400.67-2.88Q400.67-1.2 397.93-0.48 395.2 0.24 390.95 0.24L390.95 0.24ZM409.92 0.07Q408.99 0.07 408.57-0.16 408.16-0.39 408.16-0.88L408.16-0.88 408.16-29.52Q408.16-30.49 409.92-30.49L409.92-30.49 410.82-30.49Q411.5-30.49 411.91-30.3 412.31-30.1 412.63-29.66L412.63-29.66 426.49-8.74 427.79-6.3 427.79-29.52Q427.79-30.49 429.5-30.49L429.5-30.49 429.84-30.49Q431.55-30.49 431.55-29.52L431.55-29.52 431.55-0.88Q431.55-0.39 431.13-0.16 430.72 0.07 429.84 0.07L429.84 0.07 428.96 0.07Q428.35 0.07 427.98-0.07 427.62-0.22 427.42-0.54L427.42-0.54 413.11-22.12 411.94-24.37 411.94-0.88Q411.94 0.07 410.21 0.07L410.21 0.07 409.92 0.07ZM446.05 0.24Q443.65 0.24 441.59-0.28 439.53-0.81 438.29-1.55 437.06-2.29 437.06-2.91L437.06-2.91Q437.06-3.25 437.34-3.81 437.62-4.37 437.99-4.81 438.36-5.25 438.58-5.25L438.58-5.25Q438.77-5.25 439.43-4.86L439.43-4.86Q440.94-4.08 442.43-3.56 443.92-3.05 446.05-3.05L446.05-3.05Q447.71-3.05 449-3.69 450.29-4.32 451.01-5.48 451.73-6.64 451.73-8.15L451.73-8.15Q451.73-9.77 450.87-10.83 450-11.89 448.77-12.51 447.54-13.13 445.19-14.06L445.19-14.06Q442.65-15.04 441.18-15.88 439.7-16.72 438.66-18.33 437.62-19.95 437.62-22.61L437.62-22.61Q437.62-24.93 438.82-26.77 440.02-28.61 442.21-29.64 444.41-30.66 447.27-30.66L447.27-30.66Q448.56-30.66 450.22-30.31 451.88-29.96 453.07-29.35 454.25-28.74 454.25-28L454.25-28Q454.25-27.69 453.99-27.14 453.74-26.59 453.39-26.15 453.05-25.71 452.86-25.71L452.86-25.71Q452.64-25.71 451.98-26.07L451.98-26.07Q450.88-26.66 449.81-27.01 448.73-27.37 447.19-27.37L447.19-27.37Q444.68-27.37 443.13-26.07 441.58-24.78 441.58-22.46L441.58-22.46Q441.58-21.07 442.26-20.17 442.95-19.26 444-18.73 445.05-18.19 446.93-17.48L446.93-17.48Q447.05-17.46 447.49-17.29L447.49-17.29Q450.07-16.28 451.72-15.34 453.37-14.4 454.53-12.65 455.69-10.89 455.69-8.15L455.69-8.15Q455.69-5.59 454.51-3.69 453.32-1.78 451.14-0.77 448.95 0.24 446.05 0.24L446.05 0.24Z" opacity="1" transform="matrix(1,0,0,1,0,0)" fill="#202046" class="wordmark-text-0" data-fill-palette-color="primary" id="text-0"></path></svg></g></svg></g></svg></g></svg></g><g transform="matrix(1,0,0,1,171.15626656153316,0)"><svg viewBox="0 0 55.18506687693359 37.3916106467823" height="37.3916106467823" width="55.18506687693359"><g><svg xmlns="http://www.w3.org/2000/svg" xmlns:xlink="http://www.w3.org/1999/xlink" version="1.1" x="8" y="0" viewBox="0 2.2889997959136963 99.9998779296875 95.4229965209961" enable-background="new 0 0 100 100" xml:space="preserve" height="37.3916106467823" width="39.18506687693359" class="icon-icon-0" data-fill-palette-color="accent" id="icon-0"><g fill="#fe633d" data-fill-palette-color="accent"><path d="M99.279 18.508L83.756 2.982c-0.923-0.924-2.558-0.924-3.48 0l-9.656 9.659c-0.756-2.6-3.13-4.516-5.968-4.516H6.243C2.8 8.126 0 10.928 0 14.37v46.522c0 3.443 2.8 6.243 6.243 6.243h10.016l-3.005 3.006c-0.01 0.009-0.019 0.021-0.029 0.029l-0.055 0.055c-0.078 0.077-0.138 0.164-0.202 0.248-0.079 0.102-0.147 0.207-0.209 0.32-0.054 0.1-0.107 0.199-0.146 0.304-0.012 0.031-0.033 0.058-0.043 0.09L4.807 94.471c-0.294 0.885-0.064 1.86 0.595 2.519 0.469 0.47 1.098 0.722 1.741 0.722 0.26 0 0.522-0.042 0.777-0.126l23.287-7.762c0.021-0.007 0.039-0.021 0.061-0.029 0.167-0.061 0.329-0.137 0.48-0.232 0.01-0.006 0.02-0.009 0.029-0.015 0.142-0.093 0.274-0.198 0.395-0.318L54.26 67.136h10.392c3.442 0 6.241-2.8 6.241-6.243V50.498l15.009-15.011c0.147-0.148 0.267-0.317 0.37-0.494l13.008-13.006C100.24 21.026 100.24 19.468 99.279 18.508zM65.971 60.893c0 0.729-0.592 1.321-1.319 1.321h-5.47l6.789-6.792V60.893zM68.494 21.848l4.443 4.442L22.833 76.408l-4.442-4.441L68.494 21.848zM4.921 60.893V14.37c0-0.729 0.592-1.321 1.321-1.321h58.409c0.728 0 1.319 0.592 1.319 1.321v2.948L21.174 62.214H6.243C5.514 62.214 4.921 61.621 4.921 60.893zM11.033 91.359l4.946-14.839 9.893 9.893L11.033 91.359zM66.693 47.738c0 0-0.002 0-0.002 0.002l-2.67 2.671-33.59 33.597-4.119-4.12L76.418 29.77l4.121 4.12L66.693 47.738zM84.1 30.205L72.055 18.166l9.961-9.962 12.043 12.043L84.1 30.205z" fill="#fe633d" data-fill-palette-color="accent"></path><path d="M22.885 27.229c0-0.652-0.259-1.277-0.721-1.74l-5.917-5.916c-0.961-0.959-2.519-0.96-3.48 0.002-0.961 0.96-0.961 2.519 0 3.48l4.176 4.174-4.176 4.176c-0.962 0.962-0.962 2.52 0 3.48 0.48 0.48 1.11 0.722 1.74 0.722 0.629 0 1.259-0.241 1.74-0.721l5.917-5.916C22.625 28.508 22.885 27.883 22.885 27.229z" fill="#fe633d" data-fill-palette-color="accent"></path><path d="M26.482 35.606h7.048c1.359 0 2.461-1.102 2.461-2.461 0-1.358-1.102-2.462-2.461-2.462h-7.048c-1.359 0-2.46 1.104-2.46 2.462C24.021 34.505 25.123 35.606 26.482 35.606z" fill="#fe633d" data-fill-palette-color="accent"></path></g></svg></g></svg></g><g><rect width="94.62314656153319" height="2.439952269369765" y="33.951658377412535" x="226.3413334384668" fill="#3886ce" data-fill-palette-color="secondary"></rect><rect width="94.62314656153319" height="2.439952269369765" y="33.951658377412535" x="76.53311999999998" fill="#3886ce" data-fill-palette-color="secondary"></rect></g></svg></g></svg></g><defs></defs></svg><rect width="395.5199999999999" height="79.26601028648652" fill="none" stroke="none" visibility="hidden"></rect></g></svg></g></svg>